# xmcd CD database file
#
# Track frame offsets:
#	150
#	13565
#	23342
#	33515
#	45105
#	56717
#	68672
#	79115
#	91410
#	102045
#	112905
#	127382
#	141397
#	151255
#	164347
#	175917
#
# Disc length: 2492 seconds
#
# Revision: 0
# Processed by: cddbd v1.5.1PL0 Copyright (c) Steve Scherf et al.
# Submitted via: CdAid (MTCDDB.DLL V2003.07.15)
#
DISCID=c309ba10
DTITLE=Various Artist - 50 US Country Hits Cd 3
DYEAR=1999
DGENRE=Country
TTITLE0=David Houston Almost Persudad
TTITLE1=Faron Young Hello Walls
TTITLE2=Ferlin Husky Gone
TTITLE3=George Jones White Lightin
TTITLE4=Billy Walker Charlie's Shoes
TTITLE5=Stonewall Jackson Waterloo
TTITLE6=Webb Pierce He's in the Jailhouse now
TTITLE7=Lynn Anderson Stand by your man
TTITLE8=Patsy Cline I Don't wanta
TTITLE9=Jim Reeves Then I'll stop Loving You
TTITLE10=Freddy Fender Since I Met You Baby
TTITLE11=Charlie Rich On My Knees
TTITLE12=Kenny Rogers Once again She's All Alone
TTITLE13=Jerry Lee Lewis You win Again
TTITLE14=Don Gibson I Can't stop Loving You
TTITLE15=Dolly Parton What Do You think about Loving
EXTD=ID3G:   2 YEAR: 1999
EXTT0=
EXTT1=
EXTT2=
EXTT3=
EXTT4=
EXTT5=
EXTT6=
EXTT7=
EXTT8=
EXTT9=
EXTT10=
EXTT11=
EXTT12=
EXTT13=
EXTT14=
EXTT15=
PLAYORDER=
